<svg xmlns="http://www.w3.org/2000/svg" xmlns:xlink="http://www.w3.org/1999/xlink" width="48" height="240" viewBox="0 0 48 240"><svg width="48" height="48" viewBox="0 0 48 48"><g fill="#231F20"><path d="M24.5 1C11.542 1 1 11.543 1 24.5S11.542 48 24.5 48C37.457 48 48 37.457 48 24.5S37.456 1 24.5 1zm0 45.04c-11.88 0-21.542-9.662-21.542-21.54 0-11.88 9.663-21.542 21.542-21.542 11.878 0 21.542 9.663 21.542 21.542 0 11.878-9.664 21.54-21.542 21.54z"/><path d="M24.5 6.875c-9.72 0-17.625 7.907-17.625 17.625S14.78 42.125 24.5 42.125c9.718 0 17.625-7.907 17.625-17.625S34.218 6.875 24.5 6.875zm3.393 23.5H21.11l-3.392-5.872 3.392-5.878h6.782l3.39 5.874-3.39 5.875zm2.262-11.75h8.858a15.57 15.57 0 0 1 1.153 5.875c0 2.846-.775 5.51-2.107 7.814l-7.905-13.69zm7.89-1.958H22.24L26.667 9c4.86.678 9.01 3.587 11.38 7.667zM24.5 8.833l-7.913 13.71-4.426-7.664c2.87-3.673 7.33-6.047 12.34-6.047zm-13.557 7.852l7.904 13.69h-8.86a15.54 15.54 0 0 1 .956-13.69zm.01 15.65h15.81l-4.426 7.664c-4.865-.677-9.017-3.587-11.384-7.666zm13.55 7.83l7.91-13.708 4.425 7.66c-2.868 3.675-7.325 6.05-12.336 6.05z"/></g></svg><svg viewBox="0 0 48 48" width="48" height="48" y="48"><path d="M39 8H9c-4.962 0-9 4.038-9 9v14c0 4.962 4.038 9 9 9h30c4.962 0 9-4.038 9-9V17c0-4.962-4.038-9-9-9zm7 23c0 3.86-3.14 7-7 7H9c-3.86 0-7-3.14-7-7V17c0-3.86 3.14-7 7-7h30c3.86 0 7 3.14 7 7v14z" fill="#231f20"/><path fill="none" d="M1.92 19.172h44.16v9.656H1.92z"/><path d="M14.28 19.688h1.872v8.39H14.28v-8.39zm5.898 1.674c-.18.147-.27.344-.27.588s.11.438.33.582c.22.144.728.313 1.524.51.796.196 1.414.49 1.854.882.44.393.66.964.66 1.716s-.282 1.362-.846 1.83-1.306.702-2.226.702c-1.328 0-2.524-.492-3.588-1.476l1.116-1.368c.904.792 1.74 1.188 2.508 1.188.344 0 .614-.073.81-.222.196-.148.294-.348.294-.6s-.104-.452-.312-.6c-.208-.148-.62-.3-1.236-.45-.976-.232-1.69-.534-2.142-.906-.452-.372-.678-.956-.678-1.752s.286-1.41.858-1.843c.572-.432 1.286-.647 2.142-.647.56 0 1.12.096 1.68.288.56.19 1.048.464 1.464.815l-.948 1.367c-.728-.552-1.48-.828-2.256-.828-.312 0-.558.074-.738.222zm12.75 5.556c-.848.828-1.892 1.242-3.132 1.242s-2.284-.414-3.132-1.242c-.85-.828-1.272-1.858-1.272-3.09 0-1.232.424-2.262 1.272-3.09.848-.828 1.892-1.242 3.132-1.242s2.284.414 3.132 1.242 1.272 1.857 1.272 3.09c0 1.232-.425 2.262-1.272 3.09zm-.636-3.084c0-.748-.24-1.386-.72-1.914s-1.07-.792-1.77-.792-1.29.264-1.77.792-.722 1.166-.722 1.914.24 1.384.72 1.908c.48.523 1.07.786 1.77.786s1.29-.263 1.772-.786c.48-.524.72-1.16.72-1.908z"/></svg><svg viewBox="0 0 48 48" width="48" height="48" y="96"><g fill="#231f20"><path d="M42.89 12h-3.272l-1.724-3.448-.062-.107C36.782 6.87 35.42 6 34 6H24c-1.42 0-2.78.87-3.8 2.4L17.5 12H12v-1c0-1.598-1.454-3-3.11-3H7c-1.568 0-2.944 1.402-2.944 2.972l-.03 1.084C.736 12.413 0 14.59 0 16.444v20.778C0 40.26 1.863 42 5.11 42h37.78c3.247 0 5.11-1.74 5.11-4.778V16.444C48 14.417 47.113 12 42.89 12zM7 10h1.89c.55 0 1.11.505 1.11 1v1H6.028l.028-1c0-.505.467-1 .944-1zm39 27.222c0 1.92-.96 2.778-3.112 2.778H5.11C2.96 40 2 39.143 2 37.222V16.444C2 14.977 2.51 14 5 14h13.5l3.332-4.445C22.22 8.975 23.016 8 24 8h10c.957 0 1.736.92 2.134 1.505L38.382 14h4.507c2.87 0 3.11 1.208 3.11 2.444v20.778z"/><path d="M29 14c-6.617 0-12 5.383-12 12s5.383 12 12 12 12-5.383 12-12-5.383-12-12-12zm0 22c-5.514 0-10-4.486-10-10s4.486-10 10-10 10 4.486 10 10-4.486 10-10 10z"/><path d="M29 19c-3.86 0-7 3.14-7 7s3.14 7 7 7 7-3.14 7-7-3.14-7-7-7zm0 12c-2.757 0-5-2.243-5-5s2.243-5 5-5 5 2.243 5 5-2.243 5-5 5zM8 16c-2.206 0-4 1.794-4 4s1.794 4 4 4 4-1.794 4-4-1.794-4-4-4zm0 6c-1.103 0-2-.897-2-2s.897-2 2-2 2 .897 2 2-.897 2-2 2z"/></g></svg><svg viewBox="0 0 48 48" width="48" height="48" y="144"><path d="M39 10c-.34 0-.672.035-1 .093V10H13.723l-2.792 1.67C.826 17.7 0 18.192 0 25c0 6.807.62 7.176 10.956 13.345L13.723 40H38v-.093c.328.058.66.093 1 .093 5.047 0 9-6.59 9-15s-3.953-15-9-15zM22 38c-2.185 0-4.17-1.98-5.465-5h9.822c.77 2.07 1.834 3.785 3.104 5H22zm-6 0c-3.794 0-7-5.953-7-13s3.206-13 7-13h1.462C14.776 14.568 13 19.37 13 25s1.776 10.432 4.462 13H16zm13.462-26c-1.27 1.215-2.334 2.93-3.104 5h-9.822c1.295-3.02 3.28-5 5.465-5h7.462zM15.028 26h10c.068 1.775.305 3.46.7 5h-9.905a21.522 21.522 0 0 1-.795-5zm10-2h-10a21.47 21.47 0 0 1 .795-5h9.904c-.393 1.54-.63 3.225-.698 5zM27 25c0-7.047 3.206-13 7-13h.462C31.776 14.568 30 19.37 30 25s1.776 10.432 4.462 13H34c-3.794 0-7-5.953-7-13zM2 25c0-5.1.004-5.617 7.245-9.99C7.845 17.647 7 21.125 7 25s.846 7.353 2.245 9.99C2.005 30.614 2 30.095 2 25zm37 13c-3.794 0-7-5.953-7-13s3.206-13 7-13 7 5.953 7 13-3.206 13-7 13z" fill="#231f20"/></svg><svg viewBox="0 0 48 48" width="48" height="48" y="192"><g fill="#231f20"><path d="M25 0a1 1 0 0 0-1 1v21H1a1 1 0 0 0-1 1c0 13.785 10.767 25 24 25s24-10.767 24-24C48 10.99 37.468 0 25 0zm-1 46C12.19 46 2.523 36.22 2.02 24H25a1 1 0 0 0 1-1V2.026c10.94.568 20 10.4 20 21.974 0 12.13-9.87 22-22 22z"/><path d="M43 22h-4a1 1 0 1 0 0 2h4a1 1 0 1 0 0-2zm-7.687 11.9a1 1 0 1 0-1.414 1.413l2.828 2.83a.997.997 0 0 0 1.414 0 1 1 0 0 0 0-1.415l-2.83-2.83zM12.686 14.1a.997.997 0 0 0 1.414 0 1 1 0 0 0 0-1.413l-2.828-2.83a1 1 0 1 0-1.414 1.415l2.828 2.83zM25 38a1 1 0 0 0-1 1v4a1 1 0 1 0 2 0v-4a1 1 0 0 0-1-1zm-12.315-4.1l-2.828 2.828a1 1 0 1 0 1.414 1.414l2.83-2.83a1 1 0 1 0-1.415-1.413zm21.92-19.506a.997.997 0 0 0 .708-.293l2.83-2.828a1 1 0 1 0-1.415-1.414l-2.83 2.83a1 1 0 0 0 .708 1.706z"/></g></svg></svg>