<svg xmlns="http://www.w3.org/2000/svg" width="48" height="48" viewBox="0 0 48 48"><g fill="#231F20"><path d="M24.5 1C11.542 1 1 11.543 1 24.5S11.542 48 24.5 48C37.457 48 48 37.457 48 24.5S37.456 1 24.5 1zm0 45.041c-11.879 0-21.542-9.663-21.542-21.541 0-11.879 9.663-21.542 21.542-21.542 11.878 0 21.542 9.663 21.542 21.542-.001 11.878-9.664 21.541-21.542 21.541z"/><path d="M24.5 6.875c-9.719 0-17.625 7.907-17.625 17.625S14.781 42.125 24.5 42.125c9.718 0 17.625-7.907 17.625-17.625S34.218 6.875 24.5 6.875zm3.393 23.5h-6.784l-3.391-5.872 3.392-5.878h6.782l3.39 5.874-3.389 5.876zm2.262-11.75h8.858a15.573 15.573 0 0 1 1.153 5.875c0 2.846-.775 5.51-2.107 7.814l-7.904-13.689zm7.891-1.958H22.24l4.427-7.666c4.861.677 9.01 3.586 11.379 7.666zM24.5 8.833l-7.913 13.711-4.426-7.665c2.869-3.672 7.328-6.046 12.339-6.046zm-13.557 7.852l7.904 13.69h-8.86a15.54 15.54 0 0 1 .956-13.69zm.01 15.649h15.809l-4.425 7.665c-4.865-.676-9.017-3.586-11.384-7.665zm13.549 7.832l7.912-13.709 4.424 7.661c-2.868 3.674-7.325 6.048-12.336 6.048z"/></g></svg>