<svg xmlns="http://www.w3.org/2000/svg" viewBox="0 0 48 48"><path d="M39 8H9c-4.962 0-9 4.038-9 9v14c0 4.962 4.038 9 9 9h30c4.962 0 9-4.038 9-9V17c0-4.962-4.038-9-9-9zm7 23c0 3.86-3.14 7-7 7H9c-3.86 0-7-3.14-7-7V17c0-3.86 3.14-7 7-7h30c3.86 0 7 3.14 7 7v14z" fill="#231f20"/><path fill="none" d="M1.92 19.172h44.161v9.656H1.92z"/><path d="M14.28 19.688h1.872v8.389H14.28v-8.389zm5.898 1.674c-.18.147-.27.344-.27.588s.11.438.33.582c.22.144.728.313 1.524.51.796.196 1.414.49 1.854.882.44.393.66.964.66 1.716s-.282 1.362-.846 1.83-1.306.702-2.226.702c-1.328 0-2.524-.492-3.588-1.476l1.116-1.368c.904.792 1.74 1.188 2.508 1.188.344 0 .614-.073.81-.222.196-.148.294-.348.294-.6s-.104-.452-.312-.601c-.208-.147-.62-.298-1.236-.45-.976-.231-1.69-.533-2.142-.905-.452-.372-.678-.956-.678-1.752s.286-1.41.858-1.843c.572-.432 1.286-.647 2.142-.647.56 0 1.12.096 1.68.288.56.191 1.048.464 1.464.815l-.948 1.368c-.728-.552-1.48-.828-2.256-.828-.312.001-.558.075-.738.223zm12.75 5.556c-.848.828-1.892 1.242-3.132 1.242s-2.284-.414-3.132-1.242c-.849-.828-1.272-1.858-1.272-3.09 0-1.232.424-2.262 1.272-3.09.848-.828 1.892-1.242 3.132-1.242s2.284.414 3.132 1.242 1.272 1.857 1.272 3.09c0 1.232-.425 2.262-1.272 3.09zm-.636-3.084c0-.748-.24-1.386-.72-1.914s-1.07-.792-1.771-.792-1.29.264-1.77.792-.721 1.166-.721 1.914.24 1.384.721 1.908c.479.523 1.069.786 1.77.786s1.29-.263 1.771-.786c.48-.524.72-1.16.72-1.908z"/></svg>