<svg xmlns="http://www.w3.org/2000/svg" viewBox="0 0 48 48"><path d="M39 10c-.339 0-.672.035-1 .093V10H13.723l-2.792 1.67C.825 17.7 0 18.192 0 25c0 6.807.619 7.176 10.956 13.345L13.723 40H38v-.093c.328.058.661.093 1 .093 5.047 0 9-6.589 9-15s-3.953-15-9-15zM22 38c-2.185 0-4.17-1.98-5.465-5h9.822c.771 2.07 1.834 3.785 3.104 5H22zm-6 0c-3.794 0-7-5.953-7-13s3.206-13 7-13h1.462C14.776 14.568 13 19.37 13 25s1.776 10.432 4.462 13H16zm13.462-26c-1.271 1.215-2.334 2.93-3.104 5h-9.822c1.295-3.02 3.28-5 5.465-5h7.461zM15.028 26h10.001c.067 1.775.304 3.459.698 5h-9.904a21.522 21.522 0 0 1-.795-5zm10.001-2H15.028a21.47 21.47 0 0 1 .795-5h9.904c-.393 1.541-.63 3.225-.698 5zM27 25c0-7.047 3.206-13 7-13h.462C31.776 14.568 30 19.37 30 25s1.776 10.432 4.462 13H34c-3.794 0-7-5.953-7-13zM2 25c0-5.101.004-5.617 7.245-9.989C7.846 17.646 7 21.124 7 25s.846 7.353 2.245 9.989C2.005 30.615 2 30.096 2 25zm37 13c-3.794 0-7-5.953-7-13s3.206-13 7-13 7 5.953 7 13-3.206 13-7 13z" fill="#231f20"/></svg>