<svg xmlns="http://www.w3.org/2000/svg" viewBox="0 0 48 48"><g fill="#231f20"><path d="M25 0a1 1 0 0 0-1 1v21H1a1 1 0 0 0-1 1c0 13.785 10.767 25 24 25s24-10.767 24-24C48 10.991 37.468 0 25 0zm-1 46C12.189 46 2.523 36.22 2.02 24H25a1 1 0 0 0 1-1V2.026c10.94.568 20 10.4 20 21.974 0 12.131-9.869 22-22 22z"/><path d="M43 22h-4a1 1 0 1 0 0 2h4a1 1 0 1 0 0-2zm-7.687 11.899a.999.999 0 1 0-1.414 1.414l2.829 2.829a.997.997 0 0 0 1.414 0 .999.999 0 0 0 0-1.414l-2.829-2.829zM12.686 14.101a.997.997 0 0 0 1.414 0 .999.999 0 0 0 0-1.414l-2.828-2.829a.999.999 0 1 0-1.414 1.414l2.828 2.829zM25 38a1 1 0 0 0-1 1v4a1 1 0 1 0 2 0v-4a1 1 0 0 0-1-1zm-12.315-4.101l-2.828 2.829a.999.999 0 1 0 1.414 1.414l2.828-2.829a.999.999 0 1 0-1.414-1.414zm21.921-19.505a.997.997 0 0 0 .707-.293l2.829-2.829a.999.999 0 1 0-1.414-1.414l-2.829 2.829a.999.999 0 0 0 .707 1.707z"/></g></svg>